<svg width="1024" height="1024" viewBox="0 0 1024 1024" fill="none" xmlns="http://www.w3.org/2000/svg">
<g clip-path="url(#clip0_325_11851)">
<rect width="1024" height="1024" fill="#302E2A"/>
<path d="M-88.0704 1294C-115.648 1294 -138 1271.65 -138 1244.07V276.685C-138 274.68 -137.983 272.766 -137.892 270.793C-137.892 270.793 -137.825 262.222 -137.817 261.939C-137.684 254.25 -137.417 246.578 -137.06 238.93C-136.718 231.482 -136.286 224.059 -135.811 216.661C-135.753 215.729 -135.67 214.797 -135.562 213.865C-135.562 213.865 -135.462 212.193 -135.437 211.877C-134.813 203.705 -134.056 195.55 -133.19 187.428C-132.333 179.539 -131.359 171.675 -130.286 163.861C-130.144 162.688 -129.961 161.323 -129.687 159.8C-128.796 153.243 -127.823 146.752 -126.724 140.269C-126.416 137.989 -126.025 135.892 -125.509 133.778C-117.978 103.621 -109.557 74.3956 -100.42 46.6264C-84.4756 -1.85522 -65.6438 -47.9985 -44.4654 -90.5219C-38.9731 -101.739 -32.7153 -113.697 -25.9998 -125.747C-9.53136 -155.788 9.02594 -185.097 28.9728 -212.591C33.0837 -218.217 37.078 -223.592 41.1555 -228.976C66.7195 -262.404 94.8548 -293.702 124.912 -322.195C143.819 -340.12 164.007 -357.379 184.936 -373.481C195.488 -381.603 206.439 -389.6 217.465 -397.231C228.625 -404.953 240.133 -412.509 251.659 -419.666C256.235 -422.503 260.796 -425.316 265.431 -427.971C288.299 -441.552 311.899 -454.15 335.582 -465.435C450.478 -520.107 577.05 -549 701.632 -549C715.196 -549 728.894 -548.651 742.375 -547.968C742.55 -547.96 742.724 -547.951 742.899 -547.943C791.655 -545.538 840.27 -538.498 887.387 -527.031C964.919 -508.066 1039.78 -476.885 1109.92 -434.337C1110.19 -434.17 1115.79 -430.717 1116.01 -430.567C1147.25 -411.178 1177.67 -389.417 1206.44 -365.875C1209.98 -363.021 1213.78 -359.867 1217.5 -356.613C1262.06 -318.95 1303.05 -276.401 1339.34 -230.15C1360.39 -203.288 1379.81 -175.277 1397.07 -146.867C1459.35 -44.7364 1499.09 69.6522 1511.94 183.874C1511.94 183.874 1512.17 185.788 1512.22 186.229C1515.45 216.37 1517.08 246.802 1517.08 276.669V1244.05C1517.08 1271.63 1494.73 1293.98 1467.15 1293.98H-88.0704V1294Z" fill="#FEF7ED"/>
<path d="M1471.23 280.933V1248.32H-83.9934V280.933C-83.9934 279.435 -83.9933 278.02 -83.9101 276.522C-83.9101 273.36 -83.8268 270.198 -83.8268 267.036C-83.5772 252.639 -82.8284 238.326 -81.913 224.096C-81.7466 222.681 -81.6633 221.35 -81.5801 219.935C-80.4151 204.624 -78.7508 189.395 -76.6704 174.333C-76.5871 173.584 -76.5039 172.918 -76.3374 172.253C-75.4221 165.429 -74.4235 158.688 -73.2585 151.948C-73.1753 151.199 -73.092 150.533 -72.9255 149.868C-54.0355 74.2242 -28.8211 2.49213 4.29883 -63.9974C9.79108 -75.2315 15.6162 -86.2993 21.6909 -97.2006C37.2523 -125.577 54.478 -152.872 73.4512 -179.002C77.2792 -184.244 81.107 -189.404 85.0181 -194.563C108.568 -225.353 134.615 -254.479 163.324 -281.69C198.608 -315.143 238.136 -345.683 282.074 -372.978C286.234 -375.558 290.395 -378.138 294.639 -380.551C316.192 -393.366 338.411 -405.266 361.129 -416.084C480.044 -472.671 613.107 -500.548 744.421 -493.808H744.504C790.023 -491.561 835.21 -485.07 879.647 -474.252C953.46 -456.194 1023.61 -426.486 1088.1 -387.375C1089.02 -386.792 1090.02 -386.21 1090.93 -385.627C1091.1 -385.461 1091.35 -385.377 1091.6 -385.211C1092.35 -384.795 1093.01 -384.296 1093.76 -383.879C1123.39 -365.489 1151.85 -345.101 1178.89 -322.965C1182.3 -320.219 1185.72 -317.39 1189.04 -314.477C1231.32 -278.778 1269.93 -238.668 1304.13 -195.062C1323.77 -170.014 1341.99 -143.802 1358.47 -116.673C1415.97 -22.3894 1454 83.5445 1466.4 193.722C1466.49 194.471 1466.57 195.137 1466.65 195.803C1469.65 223.763 1471.23 252.14 1471.23 280.933Z" fill="#699379"/>
<path d="M1471.23 600.234V1248.32H-83.9929V665.642L1471.23 600.234Z" fill="#302E2A"/>
<path d="M374.942 453.944C374.942 453.944 370.532 456.44 362.21 459.436C336.247 468.84 272.171 482.986 183.712 441.212C128.457 415.082 17.53 361.325 -83.9934 311.894V280.938C-83.9934 279.44 -83.9933 278.025 -83.9101 276.528C-83.9101 273.365 -83.8268 270.203 -83.8268 267.041C-83.5772 252.645 -82.8284 238.331 -81.913 224.101C-81.7466 222.687 -81.6633 221.355 -81.5801 219.941C-80.4151 204.629 -78.7508 189.4 -76.6704 174.338C-76.5871 173.589 -76.5039 172.924 -76.3374 172.258C-75.4221 165.434 -74.4235 158.694 -73.2585 151.953C-73.1753 151.204 -73.092 150.539 -72.9255 149.873C-54.0355 74.2296 -28.8211 2.49743 4.29884 -63.9921C9.79109 -75.2263 15.6162 -86.294 21.6909 -97.1953C101.329 -56.2531 205.765 -1.7466 296.803 47.6837C403.735 105.768 492.194 156.946 500.266 171.343C521.486 209.622 374.942 453.944 374.942 453.944Z" fill="#BA3D3B"/>
<path d="M274.093 402.935C257.899 421.542 230.347 426.768 206.098 422.274C181.848 417.781 159.488 404.691 138.193 392.25C144.834 376.905 153.047 362.242 162.675 348.578C191.951 365.796 229.265 369.549 262.809 364.223C263.633 374.833 270.257 393.007 274.093 402.935Z" fill="#FEF7ED"/>
<path d="M281.408 75.0624L122.798 362.573L-83.827 267.042C-83.5774 252.645 -82.8286 238.332 -81.9132 224.102C-81.7468 222.687 -81.6635 221.356 -81.5803 219.941C-80.4153 204.63 -78.751 189.401 -76.6706 174.339C-76.5874 173.59 -76.5041 172.924 -76.3376 172.259C-75.4223 165.435 -74.4237 158.694 -73.2587 151.954C-73.1755 151.205 -73.0922 150.539 -72.9258 149.873C-54.0357 74.2302 -28.8213 2.49808 4.29863 -63.9915L281.408 75.0624Z" fill="#FEF7ED"/>
<path d="M933.737 573.942L867.83 597.326L744.588 546.897L740.676 545.316L727.611 539.99L771.133 476.246L779.122 481.073L797.346 491.974L933.737 573.942Z" fill="#302E2A"/>
<path d="M797.347 491.974L744.588 546.896L740.677 545.315L779.123 481.073L797.347 491.974Z" fill="#BA3D3B"/>
<path d="M750.487 418.823L799.393 454.781L723.758 578.972L628.518 534.893L686.96 430.939L750.487 418.823Z" fill="#302E2A"/>
<path d="M750.997 417.821L749.665 418.986L698.82 463.756L697.905 464.589C697.905 464.589 696.74 469.332 694.743 477.071C694.493 477.82 694.243 478.652 694.077 479.401C689.417 497.126 681.012 527.833 672.274 555.128C664.868 578.012 657.212 598.483 651.138 606.888C634.994 629.19 574.329 597.401 568.67 594.405C568.504 594.322 568.421 594.239 568.255 594.156C568.255 594.156 527.562 587.415 499.601 574.6C499.019 574.351 498.353 574.101 497.854 573.768C496.606 573.269 495.44 572.686 494.359 572.104C493.693 571.854 493.11 571.521 492.528 571.105C481.127 564.781 476.218 556.542 474.304 549.053C474.387 548.97 474.387 548.97 474.304 548.886C472.473 541.563 473.555 535.073 474.304 532.16V532.077C474.553 530.995 474.803 530.412 474.803 530.412C474.636 530.412 474.553 530.329 474.387 530.329C474.054 530.246 473.721 530.163 473.305 530.08C472.806 529.996 472.223 529.83 471.641 529.747C469.893 529.331 467.896 528.915 465.732 528.415C454.415 525.836 435.276 520.593 423.792 513.436C420.38 511.356 417.883 508.859 415.969 506.28C415.803 506.197 415.72 506.113 415.72 505.947C408.397 495.628 411.06 483.645 411.06 483.645C411.06 483.645 410.643 483.645 409.811 483.562C403.57 483.063 375.776 480.067 366.456 468.833C364.875 466.919 363.46 463.673 362.212 459.429C355.138 435.297 352.975 378.377 349.397 347.67C345.153 311.555 391.92 156.44 391.92 156.44L296.804 47.6769L85.0194 -194.565C108.57 -225.355 134.616 -254.48 163.326 -281.692C198.609 -315.145 238.137 -345.685 282.075 -372.98C286.236 -375.559 290.396 -378.139 294.64 -380.552C316.193 -393.367 338.412 -405.267 361.13 -416.085C428.285 -298.085 624.758 48.1762 651.138 99.1043C683.009 160.684 750.997 417.821 750.997 417.821Z" fill="#FEF7ED"/>
<path d="M474.769 533.532C474.561 533.532 474.336 533.507 474.12 533.465C431.896 524.42 409.27 511.754 406.881 495.827C403.653 474.299 421.037 383.876 421.777 380.032C422.102 378.342 423.699 377.219 425.43 377.56C427.12 377.885 428.226 379.524 427.902 381.213C427.719 382.137 409.985 474.415 413.056 494.895C414.163 502.268 423.733 516.29 475.418 527.357C477.107 527.715 478.181 529.379 477.815 531.06C477.507 532.533 476.217 533.532 474.769 533.532Z" fill="#BA3D3B"/>
<path d="M562.596 594.452C562.454 594.452 562.313 594.444 562.163 594.427C559.184 594.011 488.991 584.033 474.237 559.668C459.782 535.818 497.213 402.356 501.523 387.219C501.998 385.563 503.737 384.598 505.376 385.072C507.032 385.547 507.989 387.278 507.523 388.934C496.006 429.352 468.528 538.215 479.571 556.439C492.811 578.275 562.329 588.153 563.028 588.253C564.734 588.494 565.924 590.067 565.683 591.772C565.467 593.32 564.127 594.452 562.596 594.452Z" fill="#BA3D3B"/>
<path d="M631.93 618.129C609.845 618.129 577.632 605.214 566.365 596.635C550.995 584.926 585.479 457.772 596.405 419.077C596.871 417.429 598.619 416.439 600.258 416.921C601.923 417.387 602.88 419.118 602.422 420.774C580.561 498.124 562.004 585.459 570.151 591.667C581.909 600.637 620.08 615.366 639.353 611.189C643.805 610.224 646.834 608.276 648.366 605.422C658.734 586.091 702.939 439.631 703.371 438.15C703.871 436.494 705.635 435.562 707.266 436.069C708.913 436.56 709.854 438.308 709.354 439.956C707.524 446.014 664.526 588.496 653.866 608.376C651.436 612.92 647.001 615.924 640.676 617.297C638.022 617.871 635.076 618.129 631.93 618.129Z" fill="#BA3D3B"/>
<g opacity="0.27">
<path d="M1471.23 645.254V648.417C954.126 666.142 431.862 692.854 -83.9933 727.721V724.559C431.862 689.692 954.126 662.979 1471.23 645.254Z" fill="#BA3D3B"/>
<path d="M1471.23 684.863V688.025C1324.1 702.754 1174.81 709.495 1029.44 716.069L990.241 717.899C633.744 734.21 273.086 755.097 -83.9933 780.062V776.816C273.086 751.935 633.578 731.048 990.075 714.737L1029.19 712.907C1174.73 706.332 1324.02 699.592 1471.23 684.863Z" fill="#BA3D3B"/>
<path d="M1471.23 827.997V831.159C1103 836.817 723.285 843.059 350.394 863.863C295.139 866.858 239.134 870.27 184.794 873.682C96.419 879.091 6.37921 884.583 -83.9933 888.661V885.582C6.37921 881.421 96.419 875.846 184.545 870.437C238.801 867.108 294.889 863.696 350.144 860.617C723.285 839.896 1102.92 833.655 1471.23 827.997Z" fill="#BA3D3B"/>
<path d="M1471.23 900.475V903.721L408.479 951.653C246.457 958.976 80.4415 966.466 -83.9932 981.445V978.282C80.4415 963.22 246.291 955.731 408.229 948.491L1471.23 900.475Z" fill="#BA3D3B"/>
<path d="M1471.23 937.257V940.419C1455 941.085 1438.77 941.917 1422.71 942.666L-83.9934 1014.65V1011.49L1422.46 939.504C1438.61 938.755 1454.92 937.923 1471.23 937.257Z" fill="#BA3D3B"/>
<path d="M1471.23 1086.55V1089.79C1310.62 1087.38 1150.85 1066.08 995.234 1045.44C817.984 1021.89 634.66 997.592 451.751 1001.09L445.01 1001.25C281.907 1005 119.886 1030.55 -36.893 1055.18C-52.4544 1057.59 -68.1823 1060.09 -83.9933 1062.67V1059.42C-68.5151 1056.92 -53.0368 1054.51 -37.8083 1052.1C121.384 1026.97 285.902 1001.09 451.751 997.925C635.076 994.346 818.65 1018.73 996.066 1042.28C1151.51 1062.92 1311.04 1084.14 1471.23 1086.55Z" fill="#BA3D3B"/>
<path d="M1471.23 757.011V760.173C1078.7 756.762 682.509 775.069 297.469 792.877C186.875 797.954 72.3694 803.196 -40.0553 807.939C-54.1188 808.522 -68.848 809.104 -83.9933 809.521V806.358C-69.0976 805.942 -54.4515 805.277 -40.1383 804.694C72.2864 800.034 186.708 794.791 297.219 789.632C682.342 771.824 1078.53 753.516 1471.23 757.011Z" fill="#BA3D3B"/>
<path d="M1471.23 798.455V801.617C974.93 808.025 474.469 825.999 -19.3343 855.042C-40.3048 856.207 -62.0243 857.455 -83.9933 859.202V856.04C-61.6914 854.293 -40.0551 852.961 -19.584 851.796C474.386 822.754 974.93 804.779 1471.23 798.455Z" fill="#BA3D3B"/>
</g>
<path d="M347.291 869.304C347.291 869.304 413.73 1054.07 868.472 1045.3C1309.23 1036.8 1356.51 869.304 1356.51 869.304H347.291Z" fill="#BA3D3B"/>
<path d="M1356.49 869.273C1356.49 872.436 1355.55 875.515 1353.75 878.51C1327.28 922.948 1112.69 957.482 851.871 957.482C591.122 957.482 376.533 922.948 350.062 878.51C348.256 875.515 347.324 872.436 347.324 869.273C347.324 820.592 573.239 781.148 851.879 781.148C1130.58 781.148 1356.49 820.592 1356.49 869.273Z" fill="#FEF7ED"/>
<path d="M1353.75 878.512C1327.28 922.949 1112.69 957.484 851.863 957.484C591.114 957.484 376.525 922.949 350.054 878.512C376.525 834.074 591.114 799.54 851.863 799.54C1112.69 799.54 1327.28 834.074 1353.75 878.512Z" fill="#FEF7ED"/>
<path opacity="0.28" d="M1335.26 874.297C1309.76 914.723 1103.07 946.146 851.862 946.146C600.716 946.146 394.033 914.723 368.536 874.297C394.033 833.862 600.716 802.448 851.862 802.448C1103.08 802.448 1309.76 833.862 1335.26 874.297Z" fill="#302E2A"/>
<path d="M1104.73 879.215C1104.73 904.055 989.502 924.185 847.36 924.185C705.219 924.185 589.99 904.047 589.99 879.215C589.99 854.375 705.219 834.245 847.36 834.245C989.502 834.245 1104.73 854.384 1104.73 879.215Z" fill="#BA3D3B"/>
<path d="M-60.426 1168.22C-5.86133 1087 -14.2662 975.792 39.25 893.883C41.8463 889.905 45.0252 885.703 49.6853 884.729C59.2717 882.715 65.1301 894.756 67.3687 904.285C70.9802 919.688 74.5918 935.083 78.2034 950.486C82.048 902.396 105.956 851.817 140.807 818.456C151.85 807.887 168.085 798.143 181.524 805.424C190.104 810.076 194.073 820.137 196.52 829.59C200.148 843.604 201.912 858.092 201.746 872.563C220.078 846.699 247.448 822.034 275.184 806.689C286.102 800.656 297.893 795.496 310.351 794.947C322.808 794.398 336.09 799.208 342.988 809.602C351.984 823.157 347.94 841.274 342.422 856.585C332.178 885.012 317.94 911.999 300.257 936.498C317.266 933.885 335.79 932.611 352.558 936.439C366.122 939.543 380.227 945.576 387.034 957.701C393.925 969.967 391.428 985.895 383.864 997.761C376.3 1009.63 364.45 1018.08 352.267 1025.13C329.507 1038.3 304.543 1047.65 278.729 1052.65C286.144 1053.47 291.444 1052.85 298.859 1053.67C315.477 1055.49 333.81 1058.19 344.52 1071.02C359.923 1089.47 349.695 1119.75 329.857 1133.33C310.026 1146.91 284.504 1148.22 260.471 1148.36C174.01 1148.87 87.0494 1140.33 1.36197 1151.89C-23.711 1155.28 -39.9549 1153.35 -60.426 1168.22Z" fill="#699379"/>
<path d="M-61.1168 1166.37C52.5978 1028.28 192.908 907.564 339.859 805.566" stroke="#FEF7ED" stroke-width="4.1608" stroke-miterlimit="10" stroke-linecap="round" stroke-linejoin="round"/>
<path d="M883.676 688.934C881.72 700.559 881.812 713.491 888.894 722.919C893.828 729.493 901.934 733.562 910.147 733.596C918.36 733.629 926.507 729.635 931.5 723.111C939.156 713.1 938.823 699.144 936.418 686.77C931.109 659.425 916.879 628.802 899.928 605.46C899.454 617.501 898.214 633.046 894.694 646.893C891.124 660.948 886.089 674.596 883.676 688.934Z" fill="#FEF7ED"/>
</g>
<defs>
<clipPath id="clip0_325_11851">
<rect width="1024" height="1024" fill="white"/>
</clipPath>
</defs>
</svg>
